<svg width="10" height="18" viewBox="0 0 10 18" fill="none" xmlns="http://www.w3.org/2000/svg">
<path d="M9.00002 6.82102H7.50002H6.9643V6.27094V4.56568V4.0156H7.50002H8.62502C8.91967 4.0156 9.16074 3.79557 9.16074 3.46552V0.550082C9.16074 0.247537 8.94645 0 8.62502 0H6.66966C4.55358 0 3.08036 1.54023 3.08036 3.82307V6.21593V6.76601H2.54465H0.723216C0.348215 6.76601 0 7.06855 0 7.50862V9.48892C0 9.87397 0.294644 10.2315 0.723216 10.2315H2.49108H3.02679V10.7816V16.3099C3.02679 16.695 3.32144 17.0525 3.75001 17.0525H6.26787C6.42859 17.0525 6.56252 16.97 6.66966 16.86C6.7768 16.75 6.85716 16.5575 6.85716 16.3924V10.8091V10.259H7.41966H8.62502C8.97324 10.259 9.24109 10.039 9.29467 9.70895V9.68144V9.65394L9.66967 7.75616C9.69645 7.56363 9.66967 7.3436 9.50895 7.12356C9.45538 6.98604 9.21431 6.84852 9.00002 6.82102Z" fill="white"/>
</svg>
