<svg width="18" height="18" viewBox="0 0 18 18" fill="none" xmlns="http://www.w3.org/2000/svg">
<path d="M8.71765 12.4993C10.4925 12.4993 11.9314 11.0909 11.9314 9.35365C11.9314 7.61636 10.4925 6.20801 8.71765 6.20801C6.94275 6.20801 5.50391 7.61636 5.50391 9.35365C5.50391 11.0909 6.94275 12.4993 8.71765 12.4993Z" fill="white"/>
<path d="M12.2085 0.947266H5.17151C2.37334 0.947266 0.101562 3.17091 0.101562 5.90979V12.7434C0.101562 15.5365 2.37334 17.7602 5.17151 17.7602H12.1531C15.0067 17.7602 17.2784 15.5365 17.2784 12.7977V5.90979C17.2784 3.17091 15.0067 0.947266 12.2085 0.947266ZM8.7177 13.4756C6.36281 13.4756 4.5066 11.6045 4.5066 9.35372C4.5066 7.10296 6.39051 5.23185 8.7177 5.23185C11.0172 5.23185 12.9011 7.10296 12.9011 9.35372C12.9011 11.6045 11.0449 13.4756 8.7177 13.4756ZM14.5357 5.61149C14.2586 5.90979 13.8431 6.07249 13.3721 6.07249C12.9565 6.07249 12.5409 5.90979 12.2085 5.61149C11.9037 5.3132 11.7375 4.93355 11.7375 4.47255C11.7375 4.01155 11.9037 3.65903 12.2085 3.33361C12.5132 3.0082 12.9011 2.8455 13.3721 2.8455C13.7877 2.8455 14.2309 3.0082 14.5357 3.3065C14.8127 3.65903 15.0067 4.06579 15.0067 4.49967C14.9789 4.93355 14.8127 5.3132 14.5357 5.61149Z" fill="white"/>
<path d="M13.3993 3.82129C13.0391 3.82129 12.7344 4.11958 12.7344 4.47211C12.7344 4.82464 13.0391 5.12293 13.3993 5.12293C13.7594 5.12293 14.0642 4.82464 14.0642 4.47211C14.0642 4.11958 13.7871 3.82129 13.3993 3.82129Z" fill="white"/>
</svg>
